<svg width="110" height="110" viewBox="0 0 110 110" fill="none" xmlns="http://www.w3.org/2000/svg">
<circle cx="55" cy="55" r="50" stroke="url(#paint0_linear)" stroke-width="9"/>
<path d="M41.1901 35.666V45.368C41.1901 46.732 41.5201 47.744 42.1801 48.404C42.8548 49.064 43.7861 49.394 44.9741 49.394C46.1474 49.394 47.0641 49.064 47.7241 48.404C48.3988 47.744 48.7361 46.732 48.7361 45.368V35.666H50.7381V45.346C50.7381 46.622 50.4814 47.7 49.9681 48.58C49.4548 49.4453 48.7581 50.0907 47.8781 50.516C47.0128 50.9413 46.0374 51.154 44.9521 51.154C43.8668 51.154 42.8841 50.9413 42.0041 50.516C41.1388 50.0907 40.4494 49.4453 39.9361 48.58C39.4374 47.7 39.1881 46.622 39.1881 45.346V35.666H41.1901ZM56.0798 35.666V51H54.0778V35.666H56.0798ZM65.7619 43.344L70.4699 51H68.2039L64.5299 45.016L61.0319 51H58.8099L63.4959 43.344L58.7879 35.666H61.0319L64.7279 41.672L68.2479 35.666H70.4919L65.7619 43.344ZM43.599 58.556V61.57H39.507V74H35.745V61.57H31.653V58.556H43.599ZM49.249 58.556V74H45.487V58.556H49.249ZM63.7453 63.528C63.7453 64.4227 63.54 65.244 63.1293 65.992C62.7187 66.7253 62.088 67.3193 61.2373 67.774C60.3867 68.2287 59.3307 68.456 58.0693 68.456H55.7373V74H51.9753V58.556H58.0693C59.3013 58.556 60.3427 58.7687 61.1933 59.194C62.044 59.6193 62.682 60.206 63.1073 60.954C63.5327 61.702 63.7453 62.56 63.7453 63.528ZM57.7833 65.464C58.502 65.464 59.0373 65.2953 59.3893 64.958C59.7413 64.6207 59.9173 64.144 59.9173 63.528C59.9173 62.912 59.7413 62.4353 59.3893 62.098C59.0373 61.7607 58.502 61.592 57.7833 61.592H55.7373V65.464H57.7833ZM71.2918 74.154C70.1625 74.154 69.1505 73.9707 68.2558 73.604C67.3612 73.2373 66.6425 72.6947 66.0998 71.976C65.5718 71.2573 65.2932 70.392 65.2638 69.38H69.2678C69.3265 69.952 69.5245 70.392 69.8618 70.7C70.1992 70.9933 70.6392 71.14 71.1818 71.14C71.7392 71.14 72.1792 71.0153 72.5018 70.766C72.8245 70.502 72.9858 70.1427 72.9858 69.688C72.9858 69.3067 72.8538 68.9913 72.5898 68.742C72.3405 68.4927 72.0252 68.2873 71.6438 68.126C71.2772 67.9647 70.7492 67.7813 70.0598 67.576C69.0625 67.268 68.2485 66.96 67.6178 66.652C66.9872 66.344 66.4445 65.8893 65.9898 65.288C65.5352 64.6867 65.3078 63.902 65.3078 62.934C65.3078 61.4967 65.8285 60.3747 66.8698 59.568C67.9112 58.7467 69.2678 58.336 70.9398 58.336C72.6412 58.336 74.0125 58.7467 75.0538 59.568C76.0952 60.3747 76.6525 61.504 76.7258 62.956H72.6558C72.6265 62.4573 72.4432 62.0687 72.1058 61.79C71.7685 61.4967 71.3358 61.35 70.8078 61.35C70.3532 61.35 69.9865 61.4747 69.7078 61.724C69.4292 61.9587 69.2898 62.3033 69.2898 62.758C69.2898 63.2567 69.5245 63.6453 69.9938 63.924C70.4632 64.2027 71.1965 64.5033 72.1938 64.826C73.1912 65.1633 73.9978 65.486 74.6138 65.794C75.2445 66.102 75.7872 66.5493 76.2418 67.136C76.6965 67.7227 76.9238 68.478 76.9238 69.402C76.9238 70.282 76.6965 71.0813 76.2418 71.8C75.8018 72.5187 75.1565 73.0907 74.3058 73.516C73.4552 73.9413 72.4505 74.154 71.2918 74.154Z" fill="#7DE3FA" fill-opacity="0.78"/>
<defs>
<linearGradient id="paint0_linear" x1="55" y1="5" x2="55" y2="105" gradientUnits="userSpaceOnUse">
<stop stop-color="#7DE3FA" stop-opacity="0.78"/>
<stop offset="1" stop-color="#11687B" stop-opacity="0.87"/>
</linearGradient>
</defs>
</svg>
